<svg width="405" height="160" viewBox="0 0 405 160" fill="none" xmlns="http://www.w3.org/2000/svg">
<g filter="url(#filter0_i_551_3982)">
<path fill-rule="evenodd" clip-rule="evenodd" d="M381.125 12.948C381.125 19.1459 385.788 23.9324 391.925 23.9324C399.534 23.9324 404.904 18.1641 404.904 10.9844C404.904 4.78648 400.27 0 394.134 0C386.586 0 381.125 5.67627 381.125 12.948ZM392.017 21.4471C387.23 21.4471 383.702 17.7038 383.702 12.856C383.702 7.51722 387.691 2.48529 394.011 2.48529C398.828 2.48529 402.326 6.25924 402.326 11.1071C402.326 16.4152 398.307 21.4471 392.017 21.4471ZM389.869 6.04446L387.384 17.8266H390.268L391.158 13.623H393.244C394.257 13.623 394.533 14.0833 394.318 15.0651L393.735 17.8266H396.619L397.264 14.8504C397.632 13.1014 396.834 12.5185 395.729 12.4264C397.54 12.1196 398.491 10.6162 398.583 9.17408C398.675 7.45586 397.264 6.04446 394.656 6.04446H389.869ZM393.827 11.2605H391.679L392.232 8.49907H394.042C395.116 8.49907 395.668 8.89794 395.607 9.69568C395.545 10.6775 394.962 11.2605 393.827 11.2605ZM295.489 23.512L281.068 74.7159H300.425L310.006 40.775L313.103 74.7159H333.427L354.526 41.6528L345.235 74.7159H364.591L379.012 23.512H347.364L327.717 55.8436L325.782 23.512H295.489ZM194.246 159.067C167.338 159.067 145.252 151.491 134.495 139.089C126.376 150.266 108.303 157.339 85.1657 157.339H0L30.9505 47.4406H100.745C130.121 47.4406 145.097 56.6757 149.203 67.5097C158.181 54.2344 179.164 45.8718 207.333 45.8718C219.989 45.8718 231.315 47.5209 240.772 50.5252L233.995 74.7159H255.287L259.403 60.0221C267.409 66.4523 271.561 74.7705 270.688 84.3362H224.989C225.405 77.1143 218.134 71.9334 207.125 71.9334H206.086C196.116 71.9334 190.923 75.2304 190.923 79.4693C190.923 82.6092 194.039 84.4932 204.84 87.1622L222.912 91.5581C247.215 97.524 258.017 107.729 258.017 121.388C258.017 143.053 231.844 159.067 194.246 159.067ZM259.403 60.0221C254.532 56.1092 248.234 52.8954 240.772 50.5252L244.447 37.4102H221.219L225.187 23.512H292.935L288.967 37.4102H265.739L259.403 60.0221ZM173.267 118.091H137.885C134.801 110.309 126.355 104.82 114.454 102.233C127.672 101.022 138.743 95.7901 144.968 88.2882C147.48 99.1605 158.365 107.352 180.329 113.067L199.855 118.091C208.164 120.289 211.072 122.173 211.072 125.313C211.072 130.179 205.463 133.005 195.7 133.005H194.662C181.991 133.005 172.643 126.412 173.267 118.091ZM51.9303 131.434H82.0499C89.9433 131.434 94.9286 127.195 94.9286 121.857C94.9286 117.147 91.3974 114.322 82.6731 114.322H56.7079L51.9303 131.434ZM63.7704 89.202H91.1897C98.4599 89.202 103.653 85.434 103.653 79.9391C103.653 76.0142 99.914 73.3452 93.0592 73.3452H68.3403L63.7704 89.202Z" fill="black"/>
</g>
<defs>
<filter id="filter0_i_551_3982" x="0" y="0" width="404.904" height="159.067" filterUnits="userSpaceOnUse" color-interpolation-filters="sRGB">
<feFlood flood-opacity="0" result="BackgroundImageFix"/>
<feBlend mode="normal" in="SourceGraphic" in2="BackgroundImageFix" result="shape"/>
<feColorMatrix in="SourceAlpha" type="matrix" values="0 0 0 0 0 0 0 0 0 0 0 0 0 0 0 0 0 0 127 0" result="hardAlpha"/>
<feOffset/>
<feGaussianBlur stdDeviation="3.20671"/>
<feComposite in2="hardAlpha" operator="arithmetic" k2="-1" k3="1"/>
<feColorMatrix type="matrix" values="0 0 0 0 0 0 0 0 0 0 0 0 0 0 0 0 0 0 0.25 0"/>
<feBlend mode="normal" in2="shape" result="effect1_innerShadow_551_3982"/>
</filter>
</defs>
</svg>
