<svg width="1079" height="416" viewBox="0 0 1079 416" fill="none" xmlns="http://www.w3.org/2000/svg">
<path fill-rule="evenodd" clip-rule="evenodd" d="M1027.68 28.4422C1027.68 41.5835 1037.57 51.7321 1050.58 51.7321C1066.71 51.7321 1078.1 39.5017 1078.1 24.2787C1078.1 11.1374 1068.27 0.98877 1055.26 0.98877C1039.26 0.98877 1027.68 13.0241 1027.68 28.4422ZM1050.77 46.4626C1040.62 46.4626 1033.14 38.5258 1033.14 28.2471C1033.14 16.9274 1041.6 6.25827 1055 6.25827C1065.21 6.25827 1072.63 14.2601 1072.63 24.5389C1072.63 35.7935 1064.11 46.4626 1050.77 46.4626ZM1046.22 13.8047L1040.95 38.7861H1047.06L1048.95 29.8734H1053.37C1055.52 29.8734 1056.11 30.8493 1055.65 32.9311L1054.42 38.7861H1060.53L1061.9 32.4757C1062.68 28.7675 1060.99 27.5315 1058.64 27.3363C1062.48 26.6857 1064.5 23.498 1064.69 20.4404C1064.89 16.7973 1061.9 13.8047 1056.37 13.8047H1046.22ZM1054.61 24.8642H1050.06L1051.23 19.0092H1055.07C1057.34 19.0092 1058.51 19.8549 1058.38 21.5463C1058.25 23.6281 1057.02 24.8642 1054.61 24.8642ZM634.325 187.007L652.699 121.345C672.926 127.779 690 136.502 703.206 147.123L692.045 187.007H634.325ZM703.206 147.123L720.38 85.7472H783.347L794.104 48.0229H610.45L599.693 85.7472H662.661L652.699 121.345C627.062 113.191 596.359 108.714 562.049 108.714C485.688 108.714 428.807 131.412 404.467 167.445C393.336 138.04 352.738 112.975 273.106 112.975H83.9026L0 411.274H230.873C293.594 411.274 342.588 392.077 364.599 361.739C393.759 395.401 453.63 415.963 526.573 415.963C628.495 415.963 699.446 372.496 699.446 313.689C699.446 276.614 670.165 248.915 604.282 232.722L555.291 220.79C526.01 213.545 517.563 208.432 517.563 199.909C517.563 188.403 531.641 179.454 558.67 179.454H561.486C591.33 179.454 611.039 193.517 609.913 213.119H733.796C736.162 187.155 724.907 164.577 703.206 147.123ZM801.03 48.0229L761.938 187.007H814.411L840.385 94.8804L848.78 187.007H903.876L961.072 97.263L935.885 187.007H988.357L1027.45 48.0229H941.657L888.397 135.781L883.15 48.0229H801.03ZM469.699 304.74H373.787C365.426 283.618 342.53 268.721 310.271 261.699C346.099 258.412 376.113 244.212 392.987 223.851C399.798 253.359 429.307 275.592 488.845 291.103L541.777 304.74C564.301 310.706 572.185 315.819 572.185 324.342C572.185 337.553 556.981 345.223 530.515 345.223H527.699C493.35 345.223 468.01 327.325 469.699 304.74ZM140.776 340.961H222.426C243.824 340.961 257.339 329.455 257.339 314.966C257.339 302.182 247.766 294.511 224.116 294.511H153.728L140.776 340.961ZM172.873 226.329H247.203C266.912 226.329 280.989 216.101 280.989 201.186C280.989 190.533 270.853 183.288 252.271 183.288H185.261L172.873 226.329Z" fill="white"/>
</svg>
