<svg width="556" height="83" viewBox="0 0 556 83" fill="none" xmlns="http://www.w3.org/2000/svg">
<g style="mix-blend-mode:difference">
<path d="M28.8115 65.9C13.8715 65.9 4.24147 57.98 4.24147 43.04C4.24147 28.19 8.74147 16.76 15.1315 10.37C19.6315 5.87 26.0215 4.61 33.0415 4.61H40.5115C43.7515 4.61 44.9215 3.89 45.3715 1.46L45.5515 0.559998H61.7515L60.8515 5.06C59.0515 14.15 53.4715 19.46 44.3815 19.46H31.6915C25.7515 19.46 23.4115 22.34 22.3315 27.65C25.2115 24.86 30.7915 22.88 37.4515 22.88C48.5215 22.88 56.9815 29.27 56.9815 40.88C56.9815 55.64 45.0115 65.9 28.8115 65.9ZM24.4015 45.83C24.4015 50.15 25.7515 52.4 29.1715 52.4H29.8015C34.1215 52.4 37.3615 47 37.3615 41.33C37.3615 37.01 36.0115 35.03 32.5015 35.03H32.0515C27.5515 35.03 24.4015 40.16 24.4015 45.83ZM50.3651 83L63.9551 19.1H82.8551L81.9551 23.42C85.6451 19.55 89.9651 18.29 93.7451 18.29C104.545 18.29 111.385 25.67 111.385 38.18C111.385 54.11 100.315 65.9 87.8051 65.9C81.8651 65.9 77.3651 63.65 74.7551 59.42L69.7151 83H50.3651ZM77.9951 45.83C77.9951 50.15 79.7951 52.4 83.3051 52.4H83.7551C88.2551 52.4 91.9451 46.19 91.9451 38.72C91.9451 34.4 89.8751 31.88 86.4551 31.88H86.0051C81.6851 31.88 77.9951 38.36 77.9951 45.83ZM133.851 65.9C119.181 65.9 111.171 57.53 111.171 45.65C111.171 29.81 122.691 18.11 137.991 18.11C151.851 18.11 160.131 26.66 160.131 38.9C160.131 41.51 159.681 44.12 158.961 46.55H128.991C128.451 51.59 129.891 54.11 133.221 54.11H133.491C135.921 54.11 138.081 52.76 139.251 49.7H157.881C154.101 60.41 144.291 65.9 133.851 65.9ZM131.331 36.2H142.221C142.311 31.61 140.601 29.9 137.901 29.9H137.541C134.751 29.9 132.681 31.97 131.331 36.2ZM156.986 65L166.706 19.1H183.806L178.406 44.3L195.146 19.1H215.126L205.406 65H188.306L193.706 39.8L176.966 65H156.986ZM177.236 3.44H189.656C189.206 6.5 190.376 8.03 192.536 8.03C194.966 8.03 196.136 6.68 196.496 3.44H209.456C208.196 11.9 202.256 16.4 191.726 16.4C180.476 16.4 175.976 11.72 177.236 3.44ZM209.109 65L218.829 19.1H238.179L234.759 35.12H245.019L248.439 19.1H267.789L258.069 65H238.719L242.229 48.53H231.969L228.459 65H209.109ZM287.319 65.99C273.189 65.99 264.729 58.07 264.729 45.92C264.729 30.17 275.439 18.11 292.539 18.11C306.489 18.11 315.579 25.67 314.499 37.28H295.689C296.229 34.04 294.789 31.43 291.909 31.43H291.639C287.499 31.43 283.899 38.36 283.899 46.37C283.899 50.06 285.249 52.4 288.039 52.4H288.309C290.739 52.4 292.989 50.6 293.709 46.73H312.879C310.539 59.96 300.999 65.99 287.319 65.99ZM320.201 65L326.771 33.95H313.271L316.421 19.1H362.771L359.621 33.95H346.121L339.551 65H320.201ZM380.798 65.9C366.128 65.9 356.318 57.8 356.318 44.93C356.318 29.45 368.018 18.11 384.758 18.11C399.158 18.11 409.148 26.39 409.148 39.08C409.148 54.56 397.538 65.9 380.798 65.9ZM375.398 45.2C375.398 49.7 377.468 52.31 381.068 52.31H381.518C386.198 52.31 389.978 46.19 389.978 38.63C389.978 34.4 387.818 31.7 384.398 31.7H383.948C379.268 31.7 375.398 37.82 375.398 45.2ZM402.304 83L415.894 19.1H434.794L433.894 23.42C437.584 19.55 441.904 18.29 445.684 18.29C456.484 18.29 463.324 25.67 463.324 38.18C463.324 54.11 452.254 65.9 439.744 65.9C433.804 65.9 429.304 63.65 426.694 59.42L421.654 83H402.304ZM429.934 45.83C429.934 50.15 431.734 52.4 435.244 52.4H435.694C440.194 52.4 443.884 46.19 443.884 38.72C443.884 34.4 441.814 31.88 438.394 31.88H437.944C433.624 31.88 429.934 38.36 429.934 45.83Z" fill="white"/>
</g>
<g style="mix-blend-mode:difference">
<path d="M460.662 20.291L463.179 8.40354H457.585L458.541 3.97488H474.857L473.901 8.40354H468.307L465.79 20.291H460.662ZM472.632 20.291L476.105 3.97488H483.4L483.867 14.2774L488.598 3.97488H496.22L492.747 20.291H488.085L490.323 9.75545L485.242 20.291H480.347L479.601 9.47575L477.293 20.291H472.632Z" fill="white"/>
</g>
</svg>
