<svg width="580" height="615" viewBox="0 0 580 615" fill="none" xmlns="http://www.w3.org/2000/svg">
<rect width="580" height="615" rx="60" fill="#F5F5F5"/>
<path d="M201.381 505.456V521.948C201.381 523.152 201.605 523.74 203.537 523.74C204.013 523.74 204.265 523.852 204.265 524.244V524.608C204.265 524.86 204.181 525 203.845 525H195.837C195.445 525 195.221 524.86 195.221 524.496V524.16C195.221 523.88 195.333 523.768 195.865 523.768C197.741 523.768 198.273 523.292 198.273 521.948V509.236C198.273 508.648 198.021 508.368 197.433 508.592L194.829 509.572C194.577 509.656 194.409 509.712 194.269 509.432L194.157 509.18C193.989 508.844 194.101 508.732 194.465 508.536L200.289 505.288C200.597 505.12 200.877 504.98 201.101 504.98C201.325 504.98 201.381 505.176 201.381 505.456ZM219.536 515.48C219.536 509.852 218.416 506.044 215.336 506.044C212.396 506.044 211.5 509.628 211.5 514.92C211.5 520.492 212.844 524.356 215.812 524.356C218.836 524.356 219.536 521.052 219.536 515.48ZM222.896 515.2C222.896 522.508 218.92 525.42 215.532 525.42C212.144 525.42 208.14 522.508 208.14 515.2C208.14 508.452 211.64 504.98 215.588 504.98C218.976 504.98 222.896 507.892 222.896 515.2ZM238.431 515.48C238.431 509.852 237.311 506.044 234.231 506.044C231.291 506.044 230.395 509.628 230.395 514.92C230.395 520.492 231.739 524.356 234.707 524.356C237.731 524.356 238.431 521.052 238.431 515.48ZM241.791 515.2C241.791 522.508 237.815 525.42 234.427 525.42C231.039 525.42 227.035 522.508 227.035 515.2C227.035 508.452 230.535 504.98 234.483 504.98C237.871 504.98 241.791 507.892 241.791 515.2ZM249.373 516.236C246.517 516.236 245.005 513.688 245.005 510.636C245.005 507.836 246.713 505.232 249.597 505.232C252.565 505.232 253.881 507.808 253.881 510.58C253.881 513.352 252.369 516.236 249.373 516.236ZM249.373 515.34C251.025 515.34 251.585 513.324 251.585 510.608C251.585 507.892 251.221 506.1 249.541 506.1C247.889 506.1 247.329 508.256 247.329 510.636C247.329 513.296 247.693 515.34 249.373 515.34ZM260.629 525.42C257.773 525.42 256.261 522.872 256.261 519.82C256.261 517.02 257.969 514.416 260.853 514.416C263.821 514.416 265.137 516.992 265.137 519.764C265.137 522.536 263.625 525.42 260.629 525.42ZM260.629 524.524C262.281 524.524 262.841 522.508 262.841 519.792C262.841 517.076 262.477 515.284 260.797 515.284C259.145 515.284 258.585 517.44 258.585 519.82C258.585 522.48 258.949 524.524 260.629 524.524ZM262.001 506.24L249.205 525.112C248.953 525.476 248.757 525.672 248.421 525.42L248.057 525.168C247.665 524.888 247.777 524.664 248.085 524.3L260.853 505.456C261.105 505.092 261.245 504.896 261.665 505.148L262.029 505.428C262.421 505.652 262.281 505.904 262.001 506.24ZM285.683 525.42C281.595 525.42 275.295 522.676 275.295 515.2C275.295 509.264 279.635 504.98 285.739 504.98C288.287 504.98 290.135 505.764 291.479 506.548C291.787 506.716 291.955 506.66 292.039 506.436L292.403 505.708C292.459 505.568 292.515 505.484 292.627 505.484H293.103C293.299 505.484 293.383 505.596 293.383 505.848L293.523 511C293.523 511.364 293.467 511.504 293.159 511.504H292.627C292.403 511.504 292.291 511.42 292.235 511.196C291.591 508.032 288.763 506.156 285.543 506.156C281.371 506.156 278.851 509.684 278.851 514.92C278.851 520.184 281.763 524.244 285.963 524.244C289.295 524.244 291.675 522.228 292.319 518.896C292.375 518.644 292.487 518.532 292.739 518.532H293.327C293.635 518.532 293.663 518.7 293.663 519.064L293.551 524.468C293.551 524.692 293.467 524.804 293.243 524.804H292.767C292.571 524.804 292.515 524.72 292.459 524.608L292.151 523.88C292.067 523.656 291.899 523.628 291.619 523.796C290.275 524.552 288.651 525.42 285.683 525.42ZM301.287 512.82C302.351 511.56 303.835 510.3 305.515 510.3C306.579 510.3 307.223 511.056 307.223 511.98C307.223 512.96 306.635 513.548 305.851 513.548C304.507 513.548 304.535 512.708 303.303 512.708C302.491 512.708 301.315 513.8 301.287 515.788V522.144C301.287 523.348 301.511 523.572 302.855 523.796C303.275 523.852 303.303 523.992 303.303 524.328V524.636C303.303 524.972 303.275 525 302.911 525H297.031C296.611 525 296.527 524.916 296.527 524.552V524.216C296.527 523.88 296.555 523.852 296.919 523.796C298.347 523.6 298.627 523.404 298.627 522.144V513.856C298.627 512.764 298.011 512.736 296.975 512.736C296.611 512.736 296.555 512.708 296.555 512.512V512.12C296.555 511.868 296.611 511.84 296.807 511.756L300.475 510.328C300.643 510.272 300.727 510.272 300.839 510.328L301.091 510.468C301.287 510.58 301.287 510.664 301.287 510.86V512.82ZM311.796 515.9C311.768 516.292 311.74 516.656 311.74 517.02C311.74 520.044 313.084 523.264 316.584 523.264C318.264 523.264 319.636 522.088 320.252 521.22C320.392 521.024 320.476 521.024 320.616 521.136L321.036 521.416C321.148 521.5 321.232 521.556 321.092 521.808C320.532 522.9 318.936 525.28 315.688 525.28C312.132 525.28 308.772 522.312 308.772 517.664C308.772 512.96 311.796 510.216 315.66 510.216C319.048 510.216 321.148 512.736 321.148 515.368C321.148 515.9 320.84 515.9 320.476 515.9H311.796ZM315.548 511.168C313.392 511.168 312.272 513.324 312.048 514.724H317.48C317.872 514.724 318.124 514.612 318.124 514.164C318.124 512.372 317.144 511.168 315.548 511.168ZM331.513 522.452C330.589 523.684 328.993 525.196 327.173 525.196C325.297 525.196 324.065 523.88 324.065 522.144C324.065 519.96 325.661 518.896 328.517 517.776C329.553 517.356 330.617 516.936 331.597 516.32L331.625 513.968C331.653 512.148 330.869 511.42 329.329 511.42C328.377 511.42 326.865 512.12 326.865 512.988V513.38C326.865 514.668 326.529 515.844 325.185 515.844C324.205 515.844 323.757 515.228 323.757 514.5C323.757 512.316 327.705 510.216 330.561 510.216C333.165 510.216 334.313 511.7 334.285 513.604L334.173 522.06C334.173 522.676 334.537 522.984 334.929 522.984C335.433 522.984 335.909 522.312 336.217 521.5C336.273 521.332 336.301 521.332 336.469 521.388L336.805 521.5C336.945 521.556 336.945 521.584 336.917 521.78C336.637 523.264 335.461 525.112 333.753 525.112C332.241 525.112 331.513 523.824 331.513 522.452ZM331.513 521.36L331.597 517.44C330.841 517.804 329.945 518.14 329.357 518.42C327.593 519.26 326.669 520.156 326.669 521.36C326.669 522.536 327.397 523.348 328.517 523.348C329.553 523.348 330.729 522.368 331.513 521.36ZM342.886 512.428V520.744C342.886 522.48 343.614 523.152 344.594 523.152C345.518 523.152 346.246 522.76 346.834 522.452C347.366 522.2 347.478 522.172 347.59 522.34L347.814 522.732C347.926 522.984 347.954 523.096 347.674 523.348C346.722 524.16 345.378 525.112 343.866 525.112C341.374 525.112 340.226 523.404 340.226 521.304V512.428H338.574C338.266 512.428 338.126 512.316 338.126 512.092C338.126 511.924 338.21 511.756 338.434 511.588C339.974 510.44 341.038 509.264 341.794 507.808C342.018 507.36 342.158 507.248 342.438 507.248C342.746 507.248 342.886 507.444 342.886 507.892V510.552H346.918C347.338 510.552 347.506 510.692 347.282 511.168L346.806 512.036C346.61 512.4 346.47 512.428 346.05 512.428H342.886ZM352.983 507.64C352.003 507.64 351.135 506.856 351.135 505.848C351.135 504.84 352.003 504 352.983 504C353.991 504 354.803 504.84 354.803 505.848C354.803 506.856 353.991 507.64 352.983 507.64ZM351.947 522.144V514.052C351.947 512.82 351.387 512.792 350.211 512.792C349.903 512.792 349.875 512.708 349.875 512.512V512.204C349.875 511.952 349.903 511.896 350.127 511.812L353.795 510.384C353.963 510.328 354.047 510.3 354.187 510.384L354.439 510.58C354.551 510.664 354.607 510.692 354.607 510.888V522.172C354.607 523.432 354.887 523.6 356.371 523.796C356.735 523.852 356.763 523.88 356.763 524.216V524.552C356.763 524.916 356.679 525 356.287 525H350.239C349.875 525 349.847 524.972 349.847 524.636V524.328C349.847 523.992 349.875 523.852 350.295 523.796C351.667 523.6 351.947 523.404 351.947 522.144ZM365.946 521.332L368.746 513.66C369.194 512.456 368.97 511.952 367.766 511.728C367.346 511.672 367.318 511.56 367.318 511.196V510.888C367.318 510.552 367.346 510.552 367.71 510.552H372.47C372.89 510.552 372.974 510.608 372.974 511V511.308C372.974 511.672 372.946 511.672 372.582 511.728C371.322 511.952 370.678 512.344 370.23 513.492L365.694 524.804C365.582 525.056 365.442 525.196 365.246 525.196C364.994 525.196 364.77 525.028 364.658 524.776L359.674 513.38C359.17 512.176 358.862 512.008 357.546 511.728C357.182 511.672 357.154 511.672 357.154 511.308V511C357.154 510.608 357.238 510.552 357.658 510.552H363.482C363.818 510.552 363.846 510.58 363.846 510.888V511.196C363.846 511.56 363.818 511.672 363.398 511.728C362.334 511.952 362.11 512.428 362.474 513.24L365.946 521.332ZM376.737 515.9C376.709 516.292 376.681 516.656 376.681 517.02C376.681 520.044 378.025 523.264 381.525 523.264C383.205 523.264 384.577 522.088 385.193 521.22C385.333 521.024 385.417 521.024 385.557 521.136L385.977 521.416C386.089 521.5 386.173 521.556 386.033 521.808C385.473 522.9 383.877 525.28 380.629 525.28C377.073 525.28 373.713 522.312 373.713 517.664C373.713 512.96 376.737 510.216 380.601 510.216C383.989 510.216 386.089 512.736 386.089 515.368C386.089 515.9 385.781 515.9 385.417 515.9H376.737ZM380.489 511.168C378.333 511.168 377.213 513.324 376.989 514.724H382.421C382.813 514.724 383.065 514.612 383.065 514.164C383.065 512.372 382.085 511.168 380.489 511.168ZM159.5 543.116L152.556 558.88C152.444 559.132 152.276 559.44 151.996 559.44C151.688 559.44 151.548 559.216 151.38 558.852L144.128 543.144V552.692C144.128 556.92 144.492 558.74 145.892 558.74C146.704 558.74 146.984 558.936 146.984 559.3V559.608C146.984 559.86 146.872 560 146.536 560H140.264C139.844 560 139.62 559.86 139.62 559.496V559.16C139.62 558.88 139.732 558.768 140.264 558.768C142.168 558.768 142.7 557.508 142.7 552.692V543.452C142.7 542.08 142.532 541.66 141.02 541.66C140.096 541.66 139.9 541.576 139.9 541.24V540.904C139.9 540.54 140.124 540.4 140.544 540.4H145.164C146.06 540.4 146.2 540.624 146.48 541.184L152.892 555.24L158.828 541.212C159.164 540.456 159.444 540.4 160.088 540.4H164.904C165.24 540.4 165.352 540.54 165.352 540.792V541.1C165.352 541.38 165.184 541.632 164.624 541.632C162.664 541.632 162.58 542.164 162.58 543.452V556.948C162.58 558.152 162.692 558.74 164.204 558.74C165.1 558.74 165.38 558.908 165.38 559.3V559.608C165.38 559.86 165.268 560 164.932 560H157.596C157.204 560 156.952 559.86 156.952 559.496V559.16C156.952 558.88 157.064 558.768 157.596 558.768C159.024 558.768 159.5 558.32 159.5 556.948V543.116ZM175.955 557.452C175.031 558.684 173.435 560.196 171.615 560.196C169.739 560.196 168.507 558.88 168.507 557.144C168.507 554.96 170.103 553.896 172.959 552.776C173.995 552.356 175.059 551.936 176.039 551.32L176.067 548.968C176.095 547.148 175.311 546.42 173.771 546.42C172.819 546.42 171.307 547.12 171.307 547.988V548.38C171.307 549.668 170.971 550.844 169.627 550.844C168.647 550.844 168.199 550.228 168.199 549.5C168.199 547.316 172.147 545.216 175.003 545.216C177.607 545.216 178.755 546.7 178.727 548.604L178.615 557.06C178.615 557.676 178.979 557.984 179.371 557.984C179.875 557.984 180.351 557.312 180.659 556.5C180.715 556.332 180.743 556.332 180.911 556.388L181.247 556.5C181.387 556.556 181.387 556.584 181.359 556.78C181.079 558.264 179.903 560.112 178.195 560.112C176.683 560.112 175.955 558.824 175.955 557.452ZM175.955 556.36L176.039 552.44C175.283 552.804 174.387 553.14 173.799 553.42C172.035 554.26 171.111 555.156 171.111 556.36C171.111 557.536 171.839 558.348 172.959 558.348C173.995 558.348 175.171 557.368 175.955 556.36ZM189.232 560.112C185.508 560.112 183.1 557.2 183.1 553.084C183.1 549.108 185.564 545.328 189.82 545.328C191.584 545.328 192.76 545.776 193.544 546.14V541.604C193.544 540.624 192.9 540.54 191.752 540.54C191.556 540.54 191.472 540.512 191.472 540.316V539.896C191.472 539.672 191.528 539.672 191.668 539.616L195.448 538.748C195.588 538.72 195.672 538.72 195.812 538.804L196.036 538.972C196.148 539.056 196.176 539.112 196.176 539.308V556.92C196.176 557.536 196.204 557.844 196.764 558.124L197.352 558.404C197.66 558.544 197.716 558.6 197.716 558.74V558.852C197.716 558.936 197.632 558.992 197.52 559.02L194.804 559.888C194.412 560.028 194.076 560.112 193.936 560.112C193.6 560.112 193.544 559.86 193.544 559.58V558.012C193.068 558.544 191.64 560.112 189.232 560.112ZM190.016 558.096C191.752 558.096 192.62 557.48 193.544 556.668V551.18C193.544 547.988 192.172 546.56 189.82 546.56C187.3 546.56 185.956 549.248 185.956 552.748C185.956 555.744 187.776 558.096 190.016 558.096ZM203.296 550.9C203.268 551.292 203.24 551.656 203.24 552.02C203.24 555.044 204.584 558.264 208.084 558.264C209.764 558.264 211.136 557.088 211.752 556.22C211.892 556.024 211.976 556.024 212.116 556.136L212.536 556.416C212.648 556.5 212.732 556.556 212.592 556.808C212.032 557.9 210.436 560.28 207.188 560.28C203.632 560.28 200.272 557.312 200.272 552.664C200.272 547.96 203.296 545.216 207.16 545.216C210.548 545.216 212.648 547.736 212.648 550.368C212.648 550.9 212.34 550.9 211.976 550.9H203.296ZM207.048 546.168C204.892 546.168 203.772 548.324 203.548 549.724H208.98C209.372 549.724 209.624 549.612 209.624 549.164C209.624 547.372 208.644 546.168 207.048 546.168ZM225.561 542.64C224.581 542.64 223.713 541.856 223.713 540.848C223.713 539.84 224.581 539 225.561 539C226.569 539 227.381 539.84 227.381 540.848C227.381 541.856 226.569 542.64 225.561 542.64ZM224.525 557.144V549.052C224.525 547.82 223.965 547.792 222.789 547.792C222.481 547.792 222.453 547.708 222.453 547.512V547.204C222.453 546.952 222.481 546.896 222.705 546.812L226.373 545.384C226.541 545.328 226.625 545.3 226.765 545.384L227.017 545.58C227.129 545.664 227.185 545.692 227.185 545.888V557.172C227.185 558.432 227.465 558.6 228.949 558.796C229.313 558.852 229.341 558.88 229.341 559.216V559.552C229.341 559.916 229.257 560 228.865 560H222.817C222.453 560 222.425 559.972 222.425 559.636V559.328C222.425 558.992 222.453 558.852 222.873 558.796C224.245 558.6 224.525 558.404 224.525 557.144ZM236.592 549.472V557.144C236.592 558.404 236.9 558.572 238.188 558.796C238.608 558.852 238.636 558.992 238.636 559.328V559.636C238.636 559.972 238.608 560 238.244 560H232.336C231.916 560 231.832 559.916 231.832 559.552V559.216C231.832 558.88 231.86 558.852 232.224 558.796C233.652 558.6 233.932 558.404 233.932 557.144V548.912C233.932 547.848 233.568 547.708 232.196 547.708C231.916 547.708 231.86 547.68 231.86 547.456V547.12C231.86 546.896 231.888 546.84 232.112 546.756L235.78 545.328C235.976 545.244 236.06 545.272 236.2 545.356L236.452 545.496C236.564 545.58 236.592 545.636 236.592 545.86V548.24C237.796 546.56 239.392 545.328 241.268 545.328C243.676 545.328 245.552 547.176 245.552 549.556V557.144C245.552 558.404 245.86 558.6 247.26 558.796C247.624 558.852 247.652 558.88 247.652 559.216V559.552C247.652 559.916 247.568 560 247.176 560H241.268C240.932 560 240.904 559.972 240.904 559.636V559.328C240.904 558.992 240.932 558.852 241.352 558.796C242.612 558.6 242.92 558.404 242.92 557.144V550.648C242.92 548.548 241.828 547.344 240.092 547.344C238.916 547.344 237.964 547.876 236.592 549.472ZM263.823 550.564V556.948C263.823 558.152 264.047 558.74 265.559 558.74C266.455 558.74 266.735 558.908 266.735 559.3V559.608C266.735 559.86 266.623 560 266.287 560H258.307C257.887 560 257.663 559.86 257.663 559.496V559.16C257.663 558.88 257.775 558.768 258.307 558.768C260.183 558.768 260.715 558.292 260.715 556.948V543.452C260.715 542.248 260.295 541.66 258.783 541.66C257.859 541.66 257.663 541.576 257.663 541.24V540.904C257.663 540.54 257.887 540.4 258.307 540.4H266.259C266.595 540.4 266.707 540.54 266.707 540.792V541.1C266.707 541.38 266.539 541.632 266.007 541.632C264.047 541.632 263.823 542.164 263.823 543.48V549.304H264.831L270.459 543.956C271.691 542.78 271.355 541.688 270.263 541.66C269.787 541.66 269.423 541.52 269.423 541.184V540.876C269.423 540.624 269.507 540.4 269.871 540.4H276.619C277.151 540.4 277.291 540.54 277.291 540.848V541.1C277.291 541.632 277.039 541.66 276.395 541.66C275.415 541.66 274.351 542.108 273.483 542.948L267.155 548.94L273.847 556.248C275.135 557.676 276.787 558.768 278.047 558.768C278.327 558.768 278.467 558.936 278.467 559.244V559.58C278.467 559.86 278.243 560 277.795 560H270.263C269.927 560 269.843 559.776 269.843 559.524V559.3C269.843 559.076 269.871 558.936 270.543 558.796C271.103 558.712 271.523 557.984 270.599 556.976L264.803 550.564H263.823ZM286.697 557.452C285.773 558.684 284.177 560.196 282.357 560.196C280.481 560.196 279.249 558.88 279.249 557.144C279.249 554.96 280.845 553.896 283.701 552.776C284.737 552.356 285.801 551.936 286.781 551.32L286.809 548.968C286.837 547.148 286.053 546.42 284.513 546.42C283.561 546.42 282.049 547.12 282.049 547.988V548.38C282.049 549.668 281.713 550.844 280.369 550.844C279.389 550.844 278.941 550.228 278.941 549.5C278.941 547.316 282.889 545.216 285.745 545.216C288.349 545.216 289.497 546.7 289.469 548.604L289.357 557.06C289.357 557.676 289.721 557.984 290.113 557.984C290.617 557.984 291.093 557.312 291.401 556.5C291.457 556.332 291.485 556.332 291.653 556.388L291.989 556.5C292.129 556.556 292.129 556.584 292.101 556.78C291.821 558.264 290.645 560.112 288.937 560.112C287.425 560.112 286.697 558.824 286.697 557.452ZM286.697 556.36L286.781 552.44C286.025 552.804 285.129 553.14 284.541 553.42C282.777 554.26 281.853 555.156 281.853 556.36C281.853 557.536 282.581 558.348 283.701 558.348C284.737 558.348 285.913 557.368 286.697 556.36ZM294.486 560C293.898 560 293.73 559.58 294.094 559.048L301.99 547.428C302.242 547.036 302.158 546.868 301.71 546.868H298.574C296.894 546.868 295.83 548.464 294.85 550.452C294.71 550.732 294.654 550.732 294.43 550.676L294.15 550.62C293.814 550.564 293.842 550.424 293.926 550.144L295.242 546.252C295.466 545.636 295.578 545.552 296.306 545.552H305.266C305.882 545.552 305.994 545.972 305.602 546.532L297.79 558.152C297.51 558.544 297.538 558.656 297.874 558.656H301.346C303.586 558.656 304.79 557.144 305.434 555.716C305.658 555.212 305.714 555.184 305.938 555.212L306.274 555.268C306.526 555.324 306.554 555.464 306.47 555.8L305.546 559.216C305.35 559.916 305.07 560 304.426 560H294.486ZM316.201 557.452C315.277 558.684 313.681 560.196 311.861 560.196C309.985 560.196 308.753 558.88 308.753 557.144C308.753 554.96 310.349 553.896 313.205 552.776C314.241 552.356 315.305 551.936 316.285 551.32L316.313 548.968C316.341 547.148 315.557 546.42 314.017 546.42C313.065 546.42 311.553 547.12 311.553 547.988V548.38C311.553 549.668 311.217 550.844 309.873 550.844C308.893 550.844 308.445 550.228 308.445 549.5C308.445 547.316 312.393 545.216 315.249 545.216C317.853 545.216 319.001 546.7 318.973 548.604L318.861 557.06C318.861 557.676 319.225 557.984 319.617 557.984C320.121 557.984 320.597 557.312 320.905 556.5C320.961 556.332 320.989 556.332 321.157 556.388L321.493 556.5C321.633 556.556 321.633 556.584 321.605 556.78C321.325 558.264 320.149 560.112 318.441 560.112C316.929 560.112 316.201 558.824 316.201 557.452ZM316.201 556.36L316.285 552.44C315.529 552.804 314.633 553.14 314.045 553.42C312.281 554.26 311.357 555.156 311.357 556.36C311.357 557.536 312.085 558.348 313.205 558.348C314.241 558.348 315.417 557.368 316.201 556.36ZM328.33 549.472V557.144C328.33 558.404 328.638 558.572 329.926 558.796C330.346 558.852 330.374 558.992 330.374 559.328V559.636C330.374 559.972 330.346 560 329.982 560H324.074C323.654 560 323.57 559.916 323.57 559.552V559.216C323.57 558.88 323.598 558.852 323.962 558.796C325.39 558.6 325.67 558.404 325.67 557.144V548.912C325.67 547.848 325.306 547.708 323.934 547.708C323.654 547.708 323.598 547.68 323.598 547.456V547.12C323.598 546.896 323.626 546.84 323.85 546.756L327.518 545.328C327.714 545.244 327.798 545.272 327.938 545.356L328.19 545.496C328.302 545.58 328.33 545.636 328.33 545.86V548.24C329.534 546.56 331.13 545.328 333.006 545.328C335.414 545.328 337.29 547.176 337.29 549.556V557.144C337.29 558.404 337.598 558.6 338.998 558.796C339.362 558.852 339.39 558.88 339.39 559.216V559.552C339.39 559.916 339.306 560 338.914 560H333.006C332.67 560 332.642 559.972 332.642 559.636V559.328C332.642 558.992 332.67 558.852 333.09 558.796C334.35 558.6 334.658 558.404 334.658 557.144V550.648C334.658 548.548 333.566 547.344 331.83 547.344C330.654 547.344 329.702 547.876 328.33 549.472ZM343.969 559.748C343.689 560 343.381 560.112 342.849 560.112C342.093 560.112 341.337 559.412 341.337 558.404C341.337 557.312 342.205 556.668 343.129 556.668C344.725 556.668 345.957 557.9 345.957 560C345.957 561.932 344.361 563.416 343.241 564.2C342.625 564.648 342.457 564.704 342.289 564.508L342.065 564.2C341.925 563.976 341.981 563.864 342.177 563.696C343.241 562.8 343.829 562.044 344.053 560.98C344.137 560.588 344.137 560.056 343.969 559.748ZM362.395 549.584H364.635C367.491 549.584 369.143 547.96 369.143 545.664C369.143 543.144 367.715 541.66 364.747 541.66H363.151C362.395 541.66 362.395 541.856 362.395 542.444V549.584ZM362.395 550.816V556.948C362.395 558.376 362.815 558.768 364.215 558.768C364.859 558.768 364.915 559.02 364.915 559.384V559.608C364.915 559.86 364.803 560 364.495 560H357.019C356.599 560 356.375 559.86 356.375 559.496V559.16C356.375 558.824 356.571 558.74 357.495 558.74C359.119 558.74 359.315 558.068 359.315 556.584V543.452C359.315 541.912 358.895 541.632 356.963 541.632C356.431 541.632 356.319 541.52 356.319 541.24V540.904C356.319 540.54 356.543 540.4 356.963 540.4H366.427C369.675 540.4 372.195 542.22 372.195 545.328C372.195 548.296 370.123 549.808 367.379 550.284C367.827 550.424 368.247 550.816 368.639 551.404L372.447 556.92C373.203 558.012 374.155 558.544 375.779 558.824C376.283 558.908 376.311 559.104 376.311 559.356V559.636C376.311 559.888 376.087 560 375.723 560H371.859C371.019 560 370.907 559.888 370.543 559.356L365.559 552.216C364.859 551.208 364.327 550.816 363.235 550.816H362.395ZM387.282 557.368C386.078 559.048 384.454 560.112 382.55 560.112C380.03 560.112 378.322 558.348 378.322 555.856V548.884C378.322 547.736 377.678 547.652 376.698 547.652C376.334 547.652 376.25 547.624 376.25 547.428V547.064C376.25 546.812 376.278 546.756 376.502 546.672L380.198 545.328C380.366 545.272 380.478 545.216 380.646 545.328L380.87 545.524C380.982 545.608 380.982 545.72 380.982 545.86V554.904C380.982 556.864 381.85 558.096 383.502 558.096C385.07 558.096 386.33 557.06 387.282 555.8V548.8C387.282 547.736 386.694 547.652 385.546 547.652C385.266 547.652 385.21 547.568 385.21 547.428V547.092C385.21 546.812 385.182 546.784 385.462 546.672L389.158 545.328C389.326 545.244 389.41 545.244 389.55 545.328L389.83 545.552C389.914 545.608 389.942 545.72 389.942 545.888V557.088C389.942 557.564 389.998 557.76 390.306 557.9L391.342 558.432C391.594 558.572 391.734 558.628 391.734 558.768V558.936C391.734 559.048 391.594 559.104 391.286 559.188L388.598 559.944C388.374 560 387.982 560.112 387.702 560.112C387.366 560.112 387.282 559.916 387.282 559.636V557.368ZM399.488 560.112C397.556 560.112 396.352 559.048 396.044 559.048C395.96 559.048 395.876 559.104 395.848 559.216L395.736 559.636C395.68 559.832 395.596 559.888 395.372 559.888H394.84C394.616 559.888 394.56 559.776 394.56 559.524L394.588 555.912C394.588 555.548 394.644 555.408 394.924 555.408H395.456C395.652 555.408 395.764 555.464 395.82 555.688C396.268 557.704 397.752 558.824 399.264 558.824C400.888 558.824 401.784 557.956 401.784 556.612C401.784 553.252 394.784 554.344 394.784 549.388C394.784 547.036 396.828 545.328 399.292 545.328C400.776 545.328 401.672 545.944 401.98 545.944C402.064 545.944 402.092 545.888 402.12 545.804L402.232 545.496C402.288 545.3 402.4 545.244 402.596 545.244H403.072C403.296 545.244 403.352 545.356 403.352 545.552L403.492 548.996C403.492 549.304 403.408 549.416 403.184 549.416H402.708C402.456 549.416 402.372 549.304 402.288 549.024C401.784 547.428 400.748 546.504 399.32 546.504C398.088 546.504 397.192 547.232 397.192 548.492C397.192 551.908 404.192 550.76 404.192 555.576C404.192 558.152 402.036 560.112 399.488 560.112ZM412.148 560.112C410.216 560.112 409.012 559.048 408.704 559.048C408.62 559.048 408.536 559.104 408.508 559.216L408.396 559.636C408.34 559.832 408.256 559.888 408.032 559.888H407.5C407.276 559.888 407.22 559.776 407.22 559.524L407.248 555.912C407.248 555.548 407.304 555.408 407.584 555.408H408.116C408.312 555.408 408.424 555.464 408.48 555.688C408.928 557.704 410.412 558.824 411.924 558.824C413.548 558.824 414.444 557.956 414.444 556.612C414.444 553.252 407.444 554.344 407.444 549.388C407.444 547.036 409.488 545.328 411.952 545.328C413.436 545.328 414.332 545.944 414.64 545.944C414.724 545.944 414.752 545.888 414.78 545.804L414.892 545.496C414.948 545.3 415.06 545.244 415.256 545.244H415.732C415.956 545.244 416.012 545.356 416.012 545.552L416.152 548.996C416.152 549.304 416.068 549.416 415.844 549.416H415.368C415.116 549.416 415.032 549.304 414.948 549.024C414.444 547.428 413.408 546.504 411.98 546.504C410.748 546.504 409.852 547.232 409.852 548.492C409.852 551.908 416.852 550.76 416.852 555.576C416.852 558.152 414.696 560.112 412.148 560.112ZM422.765 542.64C421.785 542.64 420.917 541.856 420.917 540.848C420.917 539.84 421.785 539 422.765 539C423.773 539 424.585 539.84 424.585 540.848C424.585 541.856 423.773 542.64 422.765 542.64ZM421.729 557.144V549.052C421.729 547.82 421.169 547.792 419.993 547.792C419.685 547.792 419.657 547.708 419.657 547.512V547.204C419.657 546.952 419.685 546.896 419.909 546.812L423.577 545.384C423.745 545.328 423.829 545.3 423.969 545.384L424.221 545.58C424.333 545.664 424.389 545.692 424.389 545.888V557.172C424.389 558.432 424.669 558.6 426.153 558.796C426.517 558.852 426.545 558.88 426.545 559.216V559.552C426.545 559.916 426.461 560 426.069 560H420.021C419.657 560 419.629 559.972 419.629 559.636V559.328C419.629 558.992 419.657 558.852 420.077 558.796C421.449 558.6 421.729 558.404 421.729 557.144ZM436.623 557.452C435.699 558.684 434.103 560.196 432.283 560.196C430.407 560.196 429.175 558.88 429.175 557.144C429.175 554.96 430.771 553.896 433.627 552.776C434.663 552.356 435.727 551.936 436.707 551.32L436.735 548.968C436.763 547.148 435.979 546.42 434.439 546.42C433.487 546.42 431.975 547.12 431.975 547.988V548.38C431.975 549.668 431.639 550.844 430.295 550.844C429.315 550.844 428.867 550.228 428.867 549.5C428.867 547.316 432.815 545.216 435.671 545.216C438.275 545.216 439.423 546.7 439.395 548.604L439.283 557.06C439.283 557.676 439.647 557.984 440.039 557.984C440.543 557.984 441.019 557.312 441.327 556.5C441.383 556.332 441.411 556.332 441.579 556.388L441.915 556.5C442.055 556.556 442.055 556.584 442.027 556.78C441.747 558.264 440.571 560.112 438.863 560.112C437.351 560.112 436.623 558.824 436.623 557.452ZM436.623 556.36L436.707 552.44C435.951 552.804 435.055 553.14 434.467 553.42C432.703 554.26 431.779 555.156 431.779 556.36C431.779 557.536 432.507 558.348 433.627 558.348C434.663 558.348 435.839 557.368 436.623 556.36Z" fill="black"/>
<path d="M235.519 58.928L238.179 62.848L241.287 58.34C242.043 57.276 241.371 56.632 240.279 56.632C239.747 56.632 239.635 56.52 239.635 56.212V55.904C239.635 55.54 239.887 55.4 240.279 55.4H246.131C246.467 55.4 246.551 55.568 246.551 55.82V56.1C246.551 56.464 246.187 56.66 245.571 56.66C244.619 56.66 243.527 57.444 242.827 58.48L238.935 63.996L244.423 71.948C245.375 73.348 246.467 73.768 247.251 73.768C247.839 73.768 247.951 74.02 247.951 74.328V74.608C247.951 74.86 247.839 75 247.503 75H239.719C239.299 75 239.075 74.86 239.075 74.496V74.188C239.075 73.852 239.243 73.74 240.083 73.74C240.951 73.74 241.175 72.396 240.419 71.36L237.087 66.488L233.279 71.892C232.439 73.124 233.111 73.74 234.343 73.768C234.875 73.768 235.043 73.992 235.043 74.3V74.608C235.043 74.86 234.931 75 234.595 75H228.211C227.791 75 227.567 74.86 227.567 74.496V74.188C227.567 73.824 227.735 73.74 228.687 73.74C229.807 73.712 230.563 72.872 231.291 71.92L236.247 65.256L231.795 58.76C231.039 57.584 230.171 56.632 228.855 56.632C228.295 56.632 228.183 56.52 228.183 56.212V55.904C228.183 55.54 228.407 55.4 228.827 55.4H236.555C236.947 55.4 237.003 55.596 237.003 55.904V56.016C237.003 56.436 236.695 56.66 235.995 56.66C235.155 56.688 234.595 57.584 235.519 58.928ZM256.984 58.928L259.644 62.848L262.752 58.34C263.508 57.276 262.836 56.632 261.744 56.632C261.212 56.632 261.1 56.52 261.1 56.212V55.904C261.1 55.54 261.352 55.4 261.744 55.4H267.596C267.932 55.4 268.016 55.568 268.016 55.82V56.1C268.016 56.464 267.652 56.66 267.036 56.66C266.084 56.66 264.992 57.444 264.292 58.48L260.4 63.996L265.888 71.948C266.84 73.348 267.932 73.768 268.716 73.768C269.304 73.768 269.416 74.02 269.416 74.328V74.608C269.416 74.86 269.304 75 268.968 75H261.184C260.764 75 260.54 74.86 260.54 74.496V74.188C260.54 73.852 260.708 73.74 261.548 73.74C262.416 73.74 262.64 72.396 261.884 71.36L258.552 66.488L254.744 71.892C253.904 73.124 254.576 73.74 255.808 73.768C256.34 73.768 256.508 73.992 256.508 74.3V74.608C256.508 74.86 256.396 75 256.06 75H249.676C249.256 75 249.032 74.86 249.032 74.496V74.188C249.032 73.824 249.2 73.74 250.152 73.74C251.272 73.712 252.028 72.872 252.756 71.92L257.712 65.256L253.26 58.76C252.504 57.584 251.636 56.632 250.32 56.632C249.76 56.632 249.648 56.52 249.648 56.212V55.904C249.648 55.54 249.872 55.4 250.292 55.4H258.02C258.412 55.4 258.468 55.596 258.468 55.904V56.016C258.468 56.436 258.16 56.66 257.46 56.66C256.62 56.688 256.06 57.584 256.984 58.928ZM277.945 72.06C277.945 73.124 278.113 73.712 279.345 73.712H281.193C285.561 73.712 286.905 71.78 287.941 69.512C288.361 68.616 288.473 68.392 288.921 68.56L289.117 68.644C289.537 68.784 289.565 68.868 289.481 69.316L288.445 74.328C288.305 74.944 287.885 75 287.213 75H272.485C272.065 75 271.841 74.86 271.841 74.496V74.16C271.841 73.88 271.953 73.768 272.485 73.768C274.725 73.768 274.865 73.32 274.865 71.304V59.348C274.865 57.528 274.697 56.66 272.989 56.66C272.065 56.66 271.869 56.576 271.869 56.24V55.904C271.869 55.54 272.093 55.4 272.513 55.4H280.381C280.689 55.4 280.801 55.54 280.801 55.792V56.128C280.801 56.408 280.633 56.632 280.101 56.632C278.029 56.632 277.945 57.416 277.945 59.236V72.06ZM306.357 75.42C303.053 75.42 301.653 73.712 301.289 73.712C301.149 73.712 301.065 73.796 300.981 73.992L300.785 74.524C300.729 74.692 300.673 74.804 300.449 74.804H300.057C299.833 74.804 299.749 74.664 299.749 74.44L299.609 69.54C299.609 69.204 299.693 69.092 300.001 69.092H300.505C300.757 69.092 300.841 69.176 300.925 69.428C301.513 72.312 303.529 74.104 306.021 74.104C308.597 74.104 309.857 72.62 309.857 70.884C309.857 65.564 299.805 67.02 299.805 60.02C299.805 57.052 302.185 54.98 305.629 54.98C308.093 54.98 309.745 56.352 310.165 56.352C310.249 56.352 310.305 56.268 310.361 56.184L310.585 55.54C310.641 55.372 310.697 55.316 310.865 55.316H311.285C311.537 55.316 311.565 55.4 311.565 55.68L311.705 60.048C311.705 60.412 311.649 60.552 311.313 60.552H310.837C310.585 60.552 310.473 60.468 310.389 60.16C309.745 57.724 307.981 56.296 305.377 56.296C303.277 56.296 302.045 57.612 302.045 59.152C302.045 64.052 312.517 62.512 312.517 69.876C312.517 73.376 309.661 75.42 306.357 75.42ZM318.954 57.64C317.974 57.64 317.106 56.856 317.106 55.848C317.106 54.84 317.974 54 318.954 54C319.962 54 320.774 54.84 320.774 55.848C320.774 56.856 319.962 57.64 318.954 57.64ZM317.918 72.144V64.052C317.918 62.82 317.358 62.792 316.182 62.792C315.874 62.792 315.846 62.708 315.846 62.512V62.204C315.846 61.952 315.874 61.896 316.098 61.812L319.766 60.384C319.934 60.328 320.018 60.3 320.158 60.384L320.41 60.58C320.522 60.664 320.578 60.692 320.578 60.888V72.172C320.578 73.432 320.858 73.6 322.342 73.796C322.706 73.852 322.734 73.88 322.734 74.216V74.552C322.734 74.916 322.65 75 322.258 75H316.21C315.846 75 315.818 74.972 315.818 74.636V74.328C315.818 73.992 315.846 73.852 316.266 73.796C317.638 73.6 317.918 73.404 317.918 72.144ZM325.644 75C325.056 75 324.888 74.58 325.252 74.048L333.148 62.428C333.4 62.036 333.316 61.868 332.868 61.868H329.732C328.052 61.868 326.988 63.464 326.008 65.452C325.868 65.732 325.812 65.732 325.588 65.676L325.308 65.62C324.972 65.564 325 65.424 325.084 65.144L326.4 61.252C326.624 60.636 326.736 60.552 327.464 60.552H336.424C337.04 60.552 337.152 60.972 336.76 61.532L328.948 73.152C328.668 73.544 328.696 73.656 329.032 73.656H332.504C334.744 73.656 335.948 72.144 336.592 70.716C336.816 70.212 336.872 70.184 337.096 70.212L337.432 70.268C337.684 70.324 337.712 70.464 337.628 70.8L336.704 74.216C336.508 74.916 336.228 75 335.584 75H325.644ZM342.571 65.9C342.543 66.292 342.515 66.656 342.515 67.02C342.515 70.044 343.859 73.264 347.359 73.264C349.039 73.264 350.411 72.088 351.027 71.22C351.167 71.024 351.251 71.024 351.391 71.136L351.811 71.416C351.923 71.5 352.007 71.556 351.867 71.808C351.307 72.9 349.711 75.28 346.463 75.28C342.907 75.28 339.547 72.312 339.547 67.664C339.547 62.96 342.571 60.216 346.435 60.216C349.823 60.216 351.923 62.736 351.923 65.368C351.923 65.9 351.615 65.9 351.251 65.9H342.571ZM346.323 61.168C344.167 61.168 343.047 63.324 342.823 64.724H348.255C348.647 64.724 348.899 64.612 348.899 64.164C348.899 62.372 347.919 61.168 346.323 61.168Z" fill="black"/>
<path fill-rule="evenodd" clip-rule="evenodd" d="M498.118 211.547C498.118 217.592 502.667 222.261 508.652 222.261C516.075 222.261 521.312 216.634 521.312 209.631C521.312 203.586 516.793 198.917 510.807 198.917C503.445 198.917 498.118 204.454 498.118 211.547ZM508.742 219.837C504.073 219.837 500.632 216.186 500.632 211.457C500.632 206.249 504.522 201.341 510.688 201.341C515.386 201.341 518.798 205.022 518.798 209.751C518.798 214.929 514.878 219.837 508.742 219.837ZM506.647 204.813L504.223 216.305H507.036L507.904 212.205H509.939C510.927 212.205 511.196 212.654 510.987 213.612L510.418 216.305H513.232L513.86 213.402C514.219 211.696 513.441 211.128 512.364 211.038C514.129 210.739 515.057 209.272 515.147 207.866C515.237 206.19 513.86 204.813 511.316 204.813H506.647ZM510.508 209.901H508.413L508.952 207.207H510.718C511.765 207.207 512.304 207.596 512.244 208.374C512.184 209.332 511.615 209.901 510.508 209.901ZM402.122 221.351L386.353 277.269H407.519L417.996 240.204L421.383 277.269H443.608L466.679 241.162L456.52 277.269H477.686L493.455 221.351H458.848L437.364 256.659L435.247 221.351H402.122ZM291.411 369.385C261.987 369.385 237.836 361.112 226.073 347.568C217.194 359.774 197.431 367.497 172.131 367.497H79.001L112.846 247.481H189.167C221.29 247.481 237.666 257.566 242.156 269.397C251.975 254.9 274.919 245.768 305.721 245.768C319.562 245.768 331.946 247.569 342.288 250.85L334.876 277.269H358.159L362.661 261.221C371.415 268.244 375.955 277.328 375.001 287.774H325.029C325.483 279.887 317.533 274.229 305.494 274.229H304.358C293.455 274.229 287.777 277.83 287.777 282.459C287.777 285.888 291.184 287.945 302.996 290.86L322.757 295.661C349.333 302.176 361.145 313.32 361.145 328.237C361.145 351.897 332.525 369.385 291.411 369.385ZM362.661 261.221C357.335 256.948 350.447 253.439 342.288 250.85L346.306 236.529H320.906L325.245 221.351H399.328L394.989 236.529H369.589L362.661 261.221ZM268.469 324.636H229.781C226.408 316.137 217.172 310.144 204.159 307.318C218.611 305.996 230.718 300.283 237.525 292.091C240.272 303.964 252.175 312.909 276.192 319.15L297.544 324.636C306.63 327.036 309.81 329.094 309.81 332.523C309.81 337.838 303.677 340.924 293.001 340.924H291.865C278.009 340.924 267.788 333.723 268.469 324.636ZM135.788 339.208H168.724C177.355 339.208 182.807 334.579 182.807 328.749C182.807 323.606 178.945 320.52 169.405 320.52H141.012L135.788 339.208ZM148.735 293.087H178.718C186.668 293.087 192.347 288.973 192.347 282.972C192.347 278.685 188.258 275.771 180.763 275.771H153.732L148.735 293.087Z" fill="black"/>
</svg>
